<mxfile host="app.diagrams.net" modified="2021-03-10T01:43:43.860Z" agent="5.0 (Windows NT 10.0; Win64; x64) AppleWebKit/537.36 (KHTML, like Gecko) Chrome/88.0.4324.190 Safari/537.36" etag="XMOpe_kpt8DflZOnNC4O" version="14.4.6" type="github">
  <diagram id="piDafpqhtRUU5qUU-vj8" name="Page-1">
    <mxGraphModel dx="1564" dy="892" grid="1" gridSize="10" guides="1" tooltips="1" connect="1" arrows="1" fold="1" page="1" pageScale="1" pageWidth="827" pageHeight="1169" math="0" shadow="0">
      <root>
        <mxCell id="0" />
        <mxCell id="1" parent="0" />
        <mxCell id="8962rQQDY3VNNf6We3Pp-1" value="" style="strokeWidth=1;shadow=0;dashed=0;align=center;html=1;shape=mxgraph.mockup.containers.browserWindow;rSize=0;strokeColor2=#008cff;strokeColor3=#c4c4c4;mainText=,;recursiveResize=0;fontColor=#FFFFFF;strokeColor=none;" parent="1" vertex="1">
          <mxGeometry x="10" y="10" width="1150" height="1330" as="geometry" />
        </mxCell>
        <mxCell id="8962rQQDY3VNNf6We3Pp-2" value="Page 1" style="strokeWidth=1;shadow=0;dashed=0;align=center;html=1;shape=mxgraph.mockup.containers.anchor;fontSize=17;fontColor=#666666;align=left;" parent="8962rQQDY3VNNf6We3Pp-1" vertex="1">
          <mxGeometry x="60" y="12" width="110" height="26" as="geometry" />
        </mxCell>
        <mxCell id="8962rQQDY3VNNf6We3Pp-3" value="https://www.example.com" style="strokeWidth=1;shadow=0;dashed=0;align=center;html=1;shape=mxgraph.mockup.containers.anchor;rSize=0;fontSize=17;fontColor=#666666;align=left;" parent="8962rQQDY3VNNf6We3Pp-1" vertex="1">
          <mxGeometry x="130" y="60" width="250" height="26" as="geometry" />
        </mxCell>
        <mxCell id="8962rQQDY3VNNf6We3Pp-4" value="" style="verticalLabelPosition=bottom;shadow=0;dashed=0;align=center;html=1;verticalAlign=top;strokeWidth=1;shape=mxgraph.mockup.containers.videoPlayer;strokeColor=#666666;strokeColor2=#008cff;strokeColor3=#c4c4c4;textColor=#666666;fillColor2=#008cff;barHeight=30;barPos=20;" parent="8962rQQDY3VNNf6We3Pp-1" vertex="1">
          <mxGeometry y="110" width="1150" height="590" as="geometry" />
        </mxCell>
        <mxCell id="8962rQQDY3VNNf6We3Pp-6" value="Dropdown" style="rounded=1;fillColor=#F1F2F4;strokeColor=none;html=1;fontColor=#596780;align=left;fontSize=10;spacingLeft=10" parent="8962rQQDY3VNNf6We3Pp-1" vertex="1">
          <mxGeometry x="930" y="127" width="90" height="33" as="geometry" />
        </mxCell>
        <mxCell id="8962rQQDY3VNNf6We3Pp-7" value="" style="shape=triangle;direction=south;fillColor=#596780;strokeColor=none;html=1" parent="8962rQQDY3VNNf6We3Pp-6" vertex="1">
          <mxGeometry x="1" y="0.5" width="12" height="6" relative="1" as="geometry">
            <mxPoint x="-20" y="-3" as="offset" />
          </mxGeometry>
        </mxCell>
        <mxCell id="8962rQQDY3VNNf6We3Pp-14" value="Try now" style="rounded=1;align=center;strokeColor=none;html=1;fontColor=#ffffff;fontSize=12;fillColor=#008CFF;" parent="8962rQQDY3VNNf6We3Pp-1" vertex="1">
          <mxGeometry x="1045" y="127" width="86" height="33" as="geometry" />
        </mxCell>
        <mxCell id="8962rQQDY3VNNf6We3Pp-16" value="Appify" style="text;html=1;strokeColor=none;fillColor=none;align=center;verticalAlign=middle;whiteSpace=wrap;rounded=0;fontSize=13;fontColor=#0066CC;" parent="8962rQQDY3VNNf6We3Pp-1" vertex="1">
          <mxGeometry x="140" y="130" width="100" height="20" as="geometry" />
        </mxCell>
        <mxCell id="8962rQQDY3VNNf6We3Pp-18" value="" style="verticalLabelPosition=bottom;shadow=0;dashed=0;align=center;html=1;verticalAlign=top;strokeWidth=1;shape=mxgraph.mockup.graphics.simpleIcon;strokeColor=#999999;fontSize=13;fontColor=#0066CC;" parent="8962rQQDY3VNNf6We3Pp-1" vertex="1">
          <mxGeometry x="680" y="800" width="50" height="50" as="geometry" />
        </mxCell>
        <mxCell id="8962rQQDY3VNNf6We3Pp-21" value="" style="verticalLabelPosition=bottom;shadow=0;dashed=0;align=center;html=1;verticalAlign=top;strokeWidth=1;shape=mxgraph.mockup.graphics.simpleIcon;strokeColor=#999999;fontSize=13;fontColor=#0066CC;" parent="8962rQQDY3VNNf6We3Pp-1" vertex="1">
          <mxGeometry x="680" y="890" width="50" height="50" as="geometry" />
        </mxCell>
        <mxCell id="8962rQQDY3VNNf6We3Pp-24" value="" style="verticalLabelPosition=bottom;shadow=0;dashed=0;align=center;html=1;verticalAlign=top;strokeWidth=1;shape=mxgraph.mockup.graphics.simpleIcon;strokeColor=#999999;fontSize=13;fontColor=#0066CC;" parent="8962rQQDY3VNNf6We3Pp-1" vertex="1">
          <mxGeometry x="680" y="980" width="50" height="50" as="geometry" />
        </mxCell>
        <mxCell id="seymav8gBYocV3_De4xC-2" value="A" style="text;html=1;align=center;verticalAlign=middle;resizable=0;points=[];autosize=1;fontSize=37;fontFamily=Tahoma;fillColor=#008CFF;fontColor=#FFFFFF;" parent="8962rQQDY3VNNf6We3Pp-1" vertex="1">
          <mxGeometry x="100" y="110" width="40" height="50" as="geometry" />
        </mxCell>
        <mxCell id="5Gmcr9oHebeSFV8FM2GR-13" value="&amp;nbsp; What made you happy?" style="strokeWidth=1;shadow=0;dashed=0;align=left;html=1;shape=mxgraph.mockup.forms.spinner;strokeColor=#999999;spinLayout=right;spinStyle=normal;adjStyle=triangle;fillColor=#aaddff;fontSize=17;fontColor=#666666;mainText=;html=1;overflow=fill;" vertex="1" parent="8962rQQDY3VNNf6We3Pp-1">
          <mxGeometry x="320" y="360" width="510" height="150" as="geometry" />
        </mxCell>
        <mxCell id="5Gmcr9oHebeSFV8FM2GR-14" value="Share Moments" style="strokeWidth=1;shadow=0;dashed=0;align=center;html=1;shape=mxgraph.mockup.buttons.button;strokeColor=#666666;fontColor=#ffffff;mainText=;buttonStyle=round;fontSize=17;fontStyle=1;fillColor=#008cff;whiteSpace=wrap;" vertex="1" parent="8962rQQDY3VNNf6We3Pp-1">
          <mxGeometry x="499" y="550" width="150" height="50" as="geometry" />
        </mxCell>
        <mxCell id="5Gmcr9oHebeSFV8FM2GR-15" value="&lt;h2&gt;&lt;font style=&quot;font-size: 36px&quot;&gt;Encourage someone by sharing your happy moments&lt;/font&gt;&lt;/h2&gt;" style="text;html=1;strokeColor=none;fillColor=none;align=center;verticalAlign=middle;whiteSpace=wrap;rounded=0;" vertex="1" parent="8962rQQDY3VNNf6We3Pp-1">
          <mxGeometry x="315" y="220.43" width="520" height="99.57" as="geometry" />
        </mxCell>
        <mxCell id="5Gmcr9oHebeSFV8FM2GR-19" value="" style="strokeWidth=1;shadow=0;dashed=0;align=center;html=1;shape=mxgraph.mockup.text.alphanumeric;linkText=;html=1;fontStyle=4;fontSize=17;fontColor=#0000ff;" vertex="1" parent="8962rQQDY3VNNf6We3Pp-1">
          <mxGeometry x="204" y="360" width="450" height="50" as="geometry" />
        </mxCell>
        <mxCell id="5Gmcr9oHebeSFV8FM2GR-20" value="" style="strokeWidth=1;shadow=0;dashed=0;align=center;html=1;shape=mxgraph.mockup.forms.rrect;rSize=0;strokeColor=#999999;fillColor=#ffffff;" vertex="1" parent="8962rQQDY3VNNf6We3Pp-1">
          <mxGeometry x="335" y="715" width="490" height="580" as="geometry" />
        </mxCell>
        <mxCell id="5Gmcr9oHebeSFV8FM2GR-21" value="Sign In" style="strokeWidth=1;shadow=0;dashed=0;align=center;html=1;shape=mxgraph.mockup.forms.anchor;fontSize=12;fontColor=#666666;align=left;resizeWidth=1;spacingLeft=0;" vertex="1" parent="5Gmcr9oHebeSFV8FM2GR-20">
          <mxGeometry width="245" height="20" relative="1" as="geometry">
            <mxPoint x="10" y="10" as="offset" />
          </mxGeometry>
        </mxCell>
        <mxCell id="5Gmcr9oHebeSFV8FM2GR-22" value="" style="shape=line;strokeColor=#ddeeff;strokeWidth=2;html=1;resizeWidth=1;" vertex="1" parent="5Gmcr9oHebeSFV8FM2GR-20">
          <mxGeometry width="441" height="10" relative="1" as="geometry">
            <mxPoint x="10" y="30" as="offset" />
          </mxGeometry>
        </mxCell>
        <mxCell id="5Gmcr9oHebeSFV8FM2GR-23" value="User Name:" style="strokeWidth=1;shadow=0;dashed=0;align=center;html=1;shape=mxgraph.mockup.forms.anchor;fontSize=12;fontColor=#666666;align=left;resizeWidth=1;spacingLeft=0;" vertex="1" parent="5Gmcr9oHebeSFV8FM2GR-20">
          <mxGeometry width="245" height="20" relative="1" as="geometry">
            <mxPoint x="10" y="40" as="offset" />
          </mxGeometry>
        </mxCell>
        <mxCell id="5Gmcr9oHebeSFV8FM2GR-24" value="johndoe" style="strokeWidth=1;shadow=0;dashed=0;align=center;html=1;shape=mxgraph.mockup.forms.rrect;rSize=0;strokeColor=#999999;fontColor=#666666;align=left;spacingLeft=5;resizeWidth=1;" vertex="1" parent="5Gmcr9oHebeSFV8FM2GR-20">
          <mxGeometry width="367.5" height="25" relative="1" as="geometry">
            <mxPoint x="10" y="60" as="offset" />
          </mxGeometry>
        </mxCell>
        <mxCell id="5Gmcr9oHebeSFV8FM2GR-25" value="Password:" style="strokeWidth=1;shadow=0;dashed=0;align=center;html=1;shape=mxgraph.mockup.forms.anchor;fontSize=12;fontColor=#666666;align=left;resizeWidth=1;spacingLeft=0;" vertex="1" parent="5Gmcr9oHebeSFV8FM2GR-20">
          <mxGeometry width="245" height="20" relative="1" as="geometry">
            <mxPoint x="10" y="95" as="offset" />
          </mxGeometry>
        </mxCell>
        <mxCell id="5Gmcr9oHebeSFV8FM2GR-26" value="********" style="strokeWidth=1;shadow=0;dashed=0;align=center;html=1;shape=mxgraph.mockup.forms.rrect;rSize=0;strokeColor=#999999;fontColor=#666666;align=left;spacingLeft=5;resizeWidth=1;" vertex="1" parent="5Gmcr9oHebeSFV8FM2GR-20">
          <mxGeometry width="367.5" height="25" relative="1" as="geometry">
            <mxPoint x="10" y="115" as="offset" />
          </mxGeometry>
        </mxCell>
        <mxCell id="5Gmcr9oHebeSFV8FM2GR-27" value="SIGN IN" style="strokeWidth=1;shadow=0;dashed=0;align=center;html=1;shape=mxgraph.mockup.forms.rrect;rSize=5;strokeColor=none;fontColor=#ffffff;fillColor=#66bbff;fontSize=16;fontStyle=1;" vertex="1" parent="5Gmcr9oHebeSFV8FM2GR-20">
          <mxGeometry y="1" width="80" height="30" relative="1" as="geometry">
            <mxPoint x="20" y="-150" as="offset" />
          </mxGeometry>
        </mxCell>
        <mxCell id="5Gmcr9oHebeSFV8FM2GR-28" value="Forgot Password?" style="strokeWidth=1;shadow=0;dashed=0;align=center;html=1;shape=mxgraph.mockup.forms.anchor;fontSize=12;fontColor=#9999ff;align=left;spacingLeft=0;fontStyle=4;resizeWidth=1;" vertex="1" parent="5Gmcr9oHebeSFV8FM2GR-20">
          <mxGeometry y="1" width="367.5" height="20" relative="1" as="geometry">
            <mxPoint x="10" y="-110" as="offset" />
          </mxGeometry>
        </mxCell>
        <mxCell id="5Gmcr9oHebeSFV8FM2GR-29" value="" style="shape=line;strokeColor=#ddeeff;strokeWidth=2;html=1;resizeWidth=1;" vertex="1" parent="5Gmcr9oHebeSFV8FM2GR-20">
          <mxGeometry y="1" width="441" height="10" relative="1" as="geometry">
            <mxPoint x="10" y="-90" as="offset" />
          </mxGeometry>
        </mxCell>
        <mxCell id="5Gmcr9oHebeSFV8FM2GR-30" value="New User" style="strokeWidth=1;shadow=0;dashed=0;align=center;html=1;shape=mxgraph.mockup.forms.anchor;fontSize=12;fontColor=#666666;align=left;spacingLeft=0;resizeWidth=1;" vertex="1" parent="5Gmcr9oHebeSFV8FM2GR-20">
          <mxGeometry y="1" width="367.5" height="20" relative="1" as="geometry">
            <mxPoint x="10" y="-70" as="offset" />
          </mxGeometry>
        </mxCell>
        <mxCell id="5Gmcr9oHebeSFV8FM2GR-31" value="SIGN UP" style="strokeWidth=1;shadow=0;dashed=0;align=center;html=1;shape=mxgraph.mockup.forms.rrect;rSize=5;strokeColor=none;fontColor=#ffffff;fillColor=#66bbff;fontSize=16;fontStyle=1;" vertex="1" parent="5Gmcr9oHebeSFV8FM2GR-20">
          <mxGeometry y="1" width="80" height="30" relative="1" as="geometry">
            <mxPoint x="20" y="-50" as="offset" />
          </mxGeometry>
        </mxCell>
      </root>
    </mxGraphModel>
  </diagram>
</mxfile>
